<?xml version="1.0" encoding="UTF-8"?>
<svg id="_레이어_1" data-name="레이어 1" xmlns="http://www.w3.org/2000/svg" viewBox="0 0 74.84 80.89">
  <defs>
    <style>
      .cls-1 {
        fill: #2f318e;
      }
    </style>
  </defs>
  <g>
    <path class="cls-1" d="m69.42,48.13l-3.47-.03-2.26-.42-1.28-.56-1.6-.33-1.54-1.04-2.11-.88-1.42-1.01-1.46-1.54-1.85-1.14-1.26-2.26-1.87-3.02-.45-1.26-1.11-2-.44-1.92-.91-3.26-.07-2.38.75-1.62.28-1.19.73-1.77,2.12-2.62,1.36-.86,3.11-.09,1.8.68,1.62.82,1.5.91,1.15.78,1.56,1.16,1.41,1.93,2.51,1.61,1.1,1.3,1.8,1.98,1.3,2.58.49,1.21.81,1.45,2.8,6.44.36,2.43-1.45,2.82-1.41,2.02-2.56,1.09Zm-3.1-3.01h2.49s1.2-.51,1.2-.51l.86-1.23.86-1.69-.16-1.08-.97-2.18-1.65-3.85-.83-1.49-.5-1.24-1.04-2.06-2.41-2.72-2.6-1.67-1.47-2.01-1.15-.85-1.03-.7-1.38-.84-1.39-.71-1.02-.38-1.7.05-.25.16-1.53,1.89-.51,1.24-.32,1.29-.52,1.13.04,1.48.82,2.79.37,1.59,1.07,1.96.44,1.22,1.68,2.66.92,1.65,1.65,1.08,1.48,1.56.91.62,2.1.88,1.18.8,1.47.34,1.26.55,1.6.27Z"/>
    <path class="cls-1" d="m22.41,54.6l-2.61.04-2.72-.57-2.82-.84-1.58-.62-1.68-1.78-2.68-1.16-1.71-1.74-.87-1.71-1.23-1.42-1.55-2.2-1.4-2.75-1.46-2.39-.09-3.18.18-2.67.99-2.17,1.57-1.59,2.1-1.2,3.22-.07,1.82.29,1.18.97,1.71,1.17,2.61,2.21.76.99,1.7,2.06,2.48,1.61,1.57,1.92.79,1.86,1.54,2.22,2.63,6.15-.8,2.7-1.34,1.43-.64.87-1.65,1.58Zm-2.17-2.94l.93-.03.71-.68.56-.77.92-.99.29-.98-2.15-5.03-1.53-2.21-.68-1.62-1-1.23-2.47-1.61-2.72-3.35-2.17-1.79-1.73-1.18-.6-.5-.88-.14-2.05.06-1.09.62-.9.91-.54,1.18-.14,2.06.06,2.17,1.13,1.86,1.37,2.7,1.33,1.86,1.42,1.69.75,1.46.98,1,2.7,1.17,1.65,1.74.89.35,2.57.76,2.37.5Z"/>
    <polygon class="cls-1" points="33.54 80.83 31.65 80.89 29.84 80.16 28.03 78.7 26.47 77.22 24.69 77.63 23.98 73.14 23.95 71.06 24.43 68.27 25.39 66.5 25.98 65.6 26.29 63.11 29.27 63.48 28.87 66.66 27.94 68.09 27.29 69.27 26.93 71.4 26.98 72.96 27.14 73.98 27.23 73.96 28.83 75.28 30.07 76.51 31.37 77.54 32.18 77.87 33.45 77.83 33.54 80.83"/>
    <polygon class="cls-1" points="46.07 22.35 43.07 22.44 42.93 17.52 45.18 13.7 46.78 10.82 47.99 9.28 50.22 7.1 52.1 5.92 54.94 4.24 58.66 2.91 60.47 2.11 65.1 1.16 67.31 1.09 71.97 .05 73.73 0 73.82 3 72.21 3.05 67.55 4.09 65.32 4.15 61.26 5.01 59.73 5.71 56.09 7.01 51.96 9.55 50.18 11.33 49.23 12.56 47.79 15.19 45.95 18.3 46.07 22.35"/>
  </g>
  <polygon class="cls-1" points="54.47 31.36 56.82 29.56 60.87 30.56 63.16 33.23 65.94 38.55 66.35 40.91 66.41 42.93 66.26 44.06 65.2 44.95 63.94 45.67 61.92 45.73 56.28 41.54 55.14 39.89 54.15 38.01 52.97 36.24 52.69 34.37 52.83 32.94 53.19 32.18 53.77 31.49 54.47 31.36"/>
  <polygon class="cls-1" points="21.38 52.14 19.22 54.16 15.09 53.54 12.56 51.11 9.28 46.07 8.65 43.77 8.39 41.76 8.44 40.62 9.41 39.63 10.59 38.8 12.6 38.55 18.61 42.17 19.9 43.71 21.07 45.49 22.41 47.14 22.87 48.97 22.86 50.41 22.59 51.2 22.07 51.94 21.38 52.14"/>
</svg>