<?xml version="1.0" encoding="utf-8"?>
<!-- Generator: Adobe Illustrator 27.1.0, SVG Export Plug-In . SVG Version: 6.00 Build 0)  -->
<svg version="1.1" id="_레이어_1" xmlns="http://www.w3.org/2000/svg" xmlns:xlink="http://www.w3.org/1999/xlink" x="0px"
	 y="0px" viewBox="0 0 51.2 52.8" style="enable-background:new 0 0 51.2 52.8;" xml:space="preserve">
<style type="text/css">
	.st0{fill:#EDEDED;}
	.st1{fill:#2F318E;}
</style>
<polygon class="st0" points="50.4,38.9 48.7,26.8 44.3,10.9 40,3.5 26,1.7 15.3,3.5 6.1,9.7 6.6,15.1 2.9,19.8 1.5,24.2 5.2,28.6 
	2.7,32.8 2.9,34.3 6.9,37.6 9.9,39.3 9.7,41.7 10.6,43.6 13.5,44.8 15.9,45.3 17.3,45.3 22.2,44.3 24.7,43.9 31.7,47.8 36.5,50.8 
	40.2,51.9 41.1,52.5 49,47.8 50.1,46.1 51.2,42.5 "/>
<path class="st1" d="M16.3,44.5l-1.8-0.2l-1.9-1.2L11.6,42l-0.7-0.8l0.2-0.3l4-4.1l1.1-0.5l3.6-2.3l1.8-0.8l2.2-0.5l-0.3-1.3
	l0.4-1.4l-0.1-1.4l-3,0.3l0.1,0.8l-0.2,0.7l-2.1,0.9L16,32.8l-0.5-0.1l-0.8-0.2l-0.4,1.4l-0.1,0.1l-0.8-0.7L13,33.5l-1,0.7L11.8,35
	l0.7,0.2l-2,2l0-0.3l-0.9-0.1L7.2,36v0l-2.5-1.6l-0.4-0.1l-0.2-0.4l-0.2-0.9L4,32.5l1.6-1.9L7,30.1l1.6-0.9l1.7-1.6l1.5-1.1l1.6-0.5
	l2.1-1l2.5-0.7l2.5-0.9l3.2-2.5l-1.8-2.4L19,20.7l-2,0.7l-2.5,0.7l-2,0.9l-0.4-0.3l-0.9-0.3l-0.7-0.5l-1.8,2.4l0.5,0.3l-0.7,0.5
	l-1.6,1.5l-0.4,0.2l-0.8-0.3l-0.5-0.5l-0.6-0.4l-1.3-2.2L3,22.8l0.6-1.9l0.9-1L6,17.8l2.5-1.4l1.8-0.9l1.6-0.7l5.4-0.9l3.2-0.8
	l2.7-1.9l-1.7-2.5l-2.3,1.6l-2.5,0.6l-3.1,0.5l-2.4,0.4l-2.1,0.9l-0.8,0.4l-0.7,0.4l-0.3-1.1l0.2-0.5l0.3-1.8L9,9.3l3.9-2.1l2.7-1.7
	L19,4.2L24.1,3L28,3.4l3.2-0.1l4.2,1.3l0.8,0.2l2.1,0l1.3,0.8l0.5,0.8l0.8,0.9L41.5,9l1,1.7l0.6,1.1l0.5,1.6l0.2,1.2l0.2,1.5
	l0.2,1.2l0.4,4.3l0.8,1.4l1,3l0.5,1.1l0.3,1.8l0.4,4.3l0.2,1.5l-0.1,1.5l1.1,1.8l2.6-0.6l-0.6-2l0-0.9L50,28.6l-0.3-2.3L49.1,25
	l-1-3l-0.6-1.2L47.2,17l-0.2-1.2l-0.2-1.5l-0.3-1.5l-0.6-2l-1.7-3.1l-0.8-1.9l-0.9-1.1l-0.8-1.2l-1.3-0.9l-1.4-0.8l-2.3,0l-5.1-1.6
	l-3.5,0.1L23.9,0l-5.7,1.3l-3.8,1.5L11,4.8l-3.8,2l-1.5,1L4.5,9.4l-0.2,2.5l1,2.3l0.1,0.5L4,15.4l-1.7,2.5L1,19.3l-1,3.1l0.2,2
	l2,3.4l1,0.6l0.2,0.2l-1,1.2l-1,1.2l-0.5,1.6l0.4,1.8L2,36.6L3.4,37l0.7,0.5l0,0.6l4.3,1.3l-0.6,0.9l-0.2,1.5l1.4,1.8l1,0.9l1.9,0.6
	l2.9,1.4l1.3,0.1l1-0.2 M25.7,45.8L25.7,45.8l0.1,0l1,0.5l0.6,0.6l0.8,1l1.9,0.9l0.2,0.6l2,1l1.1,0.4l2.9,1.5l1.4,0.5l3.2-0.2
	l-0.4-3l-2.5,0.1l-0.6-0.2l-2.8-1.4l-1.2-0.4l-0.8-0.4l-0.2-0.7l-2.5-1.2l-0.5-0.5l-1.1-1l-1.6-0.7l-1.6-0.6l-1.2-0.1l-2.1-0.6
	L21.1,41l-1.3-2.1l-0.9,0.6l-0.6,0.3l-0.8,0.6l-0.7-0.1l-0.5-0.2L15.3,43l0.6,0.2l2.1,0.4l0.5-0.3l0.4-0.2l0.1,0.1l1.2,0.9"/>
</svg>
