<?xml version="1.0" encoding="UTF-8"?>
<svg id="_레이어_1" data-name="레이어 1" xmlns="http://www.w3.org/2000/svg" viewBox="0 0 58.71 46.96">
  <defs>
    <style>
      .cls-1 {
        fill: #2f318e;
      }
    </style>
  </defs>
  <path class="cls-1" d="m57.87,19.8l-3.39-1.32-1.65-.78-1.03-.4.65-1.04.53-2.21-.51-2.77-2.18-1.63-2.45-1.07-3.56.66-1.78-.36.57-.82.56-1.8-1.08-2.61-.88-.81-2.33-1.62-1.51.06-2.73-.67-1.65-.6-1.98.24-.71-.18-3.26.54-3.28.37-1.87.34-2.33.67-2.24,1.22-1.35.84-1.3,1-1.48,1.05-1.14.67-1.21.86-.97.55-2.81,1.83-1.13,1.47-.92.91-.86.7-.94.91-1.04.9-.23.25C-.9,19.68.04,20.97.4,21.45c.76,1.05,1.44,1.54,1.57,1.63l2.49,1.49,2.97-.31.36.07-.96.87-1.6,3.27,1.44,2.34,2.35,2.54,2.87-.53,1.36.03-2.35,1.88.7,4.73,4.1,3.07,1.07-.66,1.44,2.68,1.94,2.42,3.61-.23,2.11-.04,3.91-.41,2.61-.48,1.67-.08,3.16-.22,3-1.67-1.46-2.62-2.42,1.34-2.75.19-1.84.12-2.42.45-3.6.38-2.11.04-2.14.13-.71-.88-.18-.33,2.06-1.38-1.84-3.22-2.14-.89-2.83,1.74-1.48-1.11-.27-1.8,2.22-1.77.96-3.24-2.81-1.11-2.7-.06-1.72.29-.94-1-.49-.8.62-1.26,2.51-2.27-1.12-2.95-3.1-.59-2.42.25-1.48-.88c-.08-.07-.31-.26-.6-.61.19-.6.91-1.88,1.68-2.96l.97-.84.85-.82.87-.7,1.16-1.13,1.01-1.29,2.28-1.5.99-.56,1.25-.88,1.14-.67,1.69-1.19,1.16-.9,1.22-.76,1.72-.97,1.94-.57,1.64-.3,3.31-.37,2.72-.45.65.16,1.81-.22,1.05.38,3.38.84.94-.04,1.25.86.32.29.41.99-.1.33-.67.98-.38,1.02-3.04.56h-1.74s-1.74-.17-1.74-.17l-1.95.8-4.4.81-1.66,1.06-.94.27-2.02.95-2.09,1.27-1.16-1.34-2.27,1.97,2.71,3.12,1.16-1.01.42.44.56-.54,1.8-1.03,1.83-.98,1.24-.35,1.54-.98,3.98-.73,1.71-.67,1.07.1,2.07.02,2.8-.49,1.38.45,1.8-.33,1.89.39,3.26-.6,1.14.47,1.08.81.18.99-.27,1.11-.96,1.55-1.2-.12-2.01-.12-2.85.39-2.9.53-3.06.83-2.28,1.26-7.81,1.44-2.64,1.41-.28-1.52-2.95.54.41,2.2,1.2,2.43,1.37.81,1.43.31.7.11.41-2.71,1.34-.72,7.88-1.45,2.21-1.27,2.69-.74,2.79-.51,2.34-.35,1.8.1,1.84.17,1.09.23,1.4.53,1.64.78,1.98.78.13.69-2.63,1.32-3.27,1.42-.99-.17-6.66-.02-2.54.44-2.75,1.37-2.03.79-1.38.7-2.08.72-1.01-.79-1.85,2.36.35.28-.28.25,1.98,2.26,1.69-1.48,2.29-.8,1.44-.72,2.03-.78,2.57-1.27,1.72-.32h6.15s3.55.6,3.55.6l.2.47-1.13,1.07-2.31,1.44-5.74.97-5.45,2.43-5.23,3.23,1.58,2.55,4.97-3.08,5-2.24,5.95-1.01,2.94-1.83,3.01-2.81-1.44-3.32,4.72-2.37-.84-4.55Z"/>
</svg>