<?xml version="1.0" encoding="UTF-8"?>
<svg id="_레이어_1" data-name="레이어 1" xmlns="http://www.w3.org/2000/svg" viewBox="0 0 85 14.48">
  <defs>
    <style>
      .cls-1 {
        fill: #2f318e;
        stroke-width: 0px;
      }
    </style>
  </defs>
  <path class="cls-1" d="M7.63,8.08l-1.24,1.62c-1.25-.57-2.03-1.55-2.51-2.78-.49,1.31-1.32,2.36-2.6,2.96l-1.29-1.63c2.12-.92,2.84-3.07,2.84-5.39v-1.43h2.1v1.43c0,2.24.57,4.35,2.7,5.23ZM10.38,12.14h-2.08v-6.51h-2v-1.62h2V.6h2.08v11.54Z"/>
  <path class="cls-1" d="M21.59,10.93h-10.79v-1.64h4.35v-1.44h-3.17V3.77h6.41v-.88h-6.42v-1.59h8.49v4.04h-6.41v.92h6.67v1.6h-3.5v1.44h4.37v1.64Z"/>
  <path class="cls-1" d="M27.37,6.14h-5.8V1.15h5.8v4.99ZM26.36,10.18h-2.02v.33c1.55,0,2.11-.04,2.75-.21l.19,1.47c-.81.22-1.53.24-4.12.24h-.84v-3.19h2.02v-.31h-2.03v-1.49h4.05v3.17ZM23.62,4.57h1.69v-1.86h-1.69v1.86ZM30.77,12.03h-2.05v-3.44h-1.89v-1.58h3.94v5.02ZM30.77,2.71h1.47v1.63h-1.47v2.22h-2.08V.62h2.08v2.09Z"/>
  <path class="cls-1" d="M42.63,7.41h-10.79v-1.59h10.79v1.59ZM41.63,3.08c0,1.42-1.73,2.29-4.4,2.29s-4.39-.87-4.4-2.29c0-1.4,1.74-2.28,4.4-2.27,2.67,0,4.4.87,4.4,2.27ZM41.35,12h-8.3v-4h8.3v4ZM35.01,3.08c0,.54.75.75,2.22.75s2.24-.2,2.24-.75-.75-.73-2.24-.73-2.22.2-2.22.73ZM35.1,10.41h4.22v-.83h-4.22v.83Z"/>
  <path class="cls-1" d="M53.17,10.8h-10.79v-1.64h10.79v1.64ZM52.9,5.79l-.88,1.69c-2.17-.39-3.57-1.42-4.31-2.75-.77,1.32-2.16,2.37-4.31,2.75l-.88-1.69c3.05-.48,4.07-2.35,4.07-3.8v-.78h2.25v.78c0,1.5,1,3.32,4.07,3.8Z"/>
  <path class="cls-1" d="M63.68,8.95h-2.26v3.15h-2.1v-3.15h-2.03v3.15h-2.1v-3.15h-2.3v-1.63h10.79v1.63ZM62.61,6.77h-8.44V1.03h8.32v1.58h-6.25v.53h6.01v1.52h-6.01v.53h6.37v1.58Z"/>
  <path class="cls-1" d="M69.94,3.21h-3.76v4.59c1.98-.01,3.16-.07,4.45-.31l.18,1.65c-1.5.29-2.92.33-5.63.34h-1.07V1.58h5.83v1.63ZM73.4,12.14h-2.1V.61h2.1v11.53Z"/>
  <path class="cls-1" d="M83.88,4.36c0,1.71-1.46,2.9-3.5,3.21v1.65h4.37v1.64h-10.79v-1.64h4.35v-1.65c-2.05-.3-3.5-1.5-3.49-3.21,0-1.97,1.96-3.26,4.53-3.25,2.58,0,4.54,1.29,4.54,3.25ZM76.87,4.36c0,1.1.99,1.67,2.47,1.67,1.48,0,2.47-.57,2.47-1.67,0-1.09-.99-1.66-2.47-1.66s-2.46.58-2.47,1.66Z"/>
</svg>