<?xml version="1.0" encoding="UTF-8"?>
<svg id="_레이어_1" data-name="레이어 1" xmlns="http://www.w3.org/2000/svg" viewBox="0 0 85 19.78">
  <defs>
    <style>
      .cls-1 {
        fill: #2f318e;
      }
    </style>
  </defs>
  <path class="cls-1" d="m3.36,9.02c-1.88,0-3.33-.92-3.36-2.51h1.95c.05.68.53,1.12,1.37,1.12s1.36-.42,1.36-1.03C4.68,4.78.01,5.88.03,2.82.03,1.3,1.35.39,3.22.39s3.13.88,3.24,2.4h-2c-.04-.55-.52-.99-1.3-1-.71-.02-1.25.3-1.25.99,0,1.69,4.64.75,4.64,3.72,0,1.33-1.14,2.52-3.2,2.52Z"/>
  <path class="cls-1" d="m10.75,9.04c-2.09,0-3.61-1.35-3.61-3.45s1.48-3.45,3.61-3.45,3.54,1.32,3.54,3.31c0,.22-.01.43-.05.65h-5.25c.09.99.82,1.54,1.73,1.54.78,0,1.21-.36,1.44-.81h1.96c-.39,1.23-1.58,2.21-3.36,2.21Zm-1.75-4.08h3.41c-.03-.88-.78-1.44-1.71-1.44-.87,0-1.56.52-1.7,1.44Z"/>
  <path class="cls-1" d="m18.29,9.04c-2.08,0-3.64-1.35-3.64-3.45s1.62-3.45,3.7-3.45,3.7,1.34,3.7,3.45-1.66,3.45-3.75,3.45Zm0-1.47c.96,0,1.88-.65,1.88-1.98s-.89-1.98-1.85-1.98-1.83.64-1.83,1.98.83,1.98,1.8,1.98Z"/>
  <path class="cls-1" d="m24.66,8.93h-1.82V2.25h1.82v1.04c.45-.69,1.21-1.13,2.21-1.13v1.77h-.48c-1.08,0-1.72.39-1.72,1.68v3.33Z"/>
  <path class="cls-1" d="m30.76,9.04c-2.08,0-3.64-1.35-3.64-3.45s1.62-3.45,3.7-3.45,3.7,1.34,3.7,3.45-1.66,3.45-3.75,3.45Zm0-1.47c.96,0,1.88-.65,1.88-1.98s-.89-1.98-1.85-1.98-1.83.64-1.83,1.98.83,1.98,1.8,1.98Z"/>
  <path class="cls-1" d="m35.35,3.91h5.5v1.42h-5.5v-1.42Z"/>
  <path class="cls-1" d="m42.36.51h2.06l2.88,6.26,2.88-6.26h2.05v8.42h-1.82V3.45l-2.43,5.48h-1.37l-2.44-5.48v5.48h-1.82V.51Z"/>
  <path class="cls-1" d="m56.32,2.14c1.15,0,1.95.51,2.37,1.06v-.95h1.83v6.69h-1.83v-.98c-.43.58-1.25,1.09-2.39,1.09-1.82,0-3.27-1.39-3.27-3.48s1.45-3.43,3.28-3.43Zm.47,1.48c-.97,0-1.89.68-1.89,1.94s.92,1.99,1.89,1.99,1.91-.7,1.91-1.97-.91-1.97-1.91-1.97Z"/>
  <path class="cls-1" d="m61.78,0h1.82v8.93h-1.82V0Z"/>
  <path class="cls-1" d="m67.68,2.14c1.13,0,1.95.48,2.37,1.06v-.95h1.83v6.73c0,1.81-1.19,3.25-3.55,3.25-2.02,0-3.44-.94-3.62-2.47h1.8c.18.6.86,1,1.76,1,1,0,1.78-.53,1.78-1.77v-1.04c-.43.58-1.25,1.1-2.37,1.1-1.83,0-3.28-1.39-3.28-3.48s1.45-3.43,3.28-3.43Zm.47,1.48c-.97,0-1.89.68-1.89,1.94s.92,1.99,1.89,1.99,1.91-.7,1.91-1.97-.91-1.97-1.91-1.97Z"/>
  <path class="cls-1" d="m83.19,5.24c0-1.06-.63-1.62-1.59-1.62s-1.61.55-1.61,1.62v3.69h-1.82v-3.69c0-1.06-.64-1.62-1.6-1.62s-1.62.55-1.62,1.62v3.69h-1.82V2.25h1.82v.81c.45-.56,1.22-.91,2.11-.91,1.12,0,2.04.45,2.53,1.28.47-.76,1.41-1.28,2.46-1.28,1.72,0,2.94,1.01,2.94,2.86v3.92h-1.82v-3.69Z"/>
  <path class="cls-1" d="m3.36,19.76c-1.88,0-3.33-.92-3.36-2.51h1.95c.05.68.53,1.12,1.37,1.12s1.36-.42,1.36-1.03C4.68,15.52.01,16.62.03,13.56c0-1.52,1.32-2.44,3.19-2.44s3.13.88,3.24,2.4h-2c-.04-.55-.52-.99-1.3-1-.71-.02-1.25.3-1.25.99,0,1.69,4.64.75,4.64,3.72,0,1.33-1.14,2.52-3.2,2.52Z"/>
  <path class="cls-1" d="m7.9,14.37h-.86v-1.39h.86v-1.65h1.83v1.65h1.61v1.39h-1.61v3.24c0,.45.19.64.77.64h.84v1.42h-1.14c-1.37,0-2.29-.54-2.29-2.08v-3.22Z"/>
  <path class="cls-1" d="m18.91,19.67h-1.83v-.84c-.45.57-1.25.93-2.14.93-1.67,0-2.88-1.01-2.88-2.85v-3.92h1.82v3.68c0,1.07.64,1.65,1.6,1.65s1.61-.58,1.61-1.65v-3.68h1.83v6.69Z"/>
  <path class="cls-1" d="m23,12.88c.95,0,1.85.41,2.35,1.04v-3.17h1.84v8.93h-1.84v-.99c-.43.62-1.23,1.1-2.36,1.1-1.83,0-3.28-1.39-3.28-3.48s1.45-3.43,3.29-3.43Zm.45,1.48c-.97,0-1.89.68-1.89,1.94s.92,1.99,1.89,1.99,1.91-.7,1.91-1.97-.91-1.97-1.91-1.97Z"/>
  <path class="cls-1" d="m28.26,11.2c0-.56.47-.99,1.12-.99s1.12.43,1.12.99-.48.99-1.12.99-1.12-.43-1.12-.99Zm.19,1.79h1.82v6.69h-1.82v-6.69Z"/>
  <path class="cls-1" d="m34.73,19.78c-2.08,0-3.64-1.35-3.64-3.45s1.62-3.45,3.7-3.45,3.7,1.34,3.7,3.45-1.66,3.45-3.75,3.45Zm0-1.47c.96,0,1.88-.65,1.88-1.98s-.89-1.98-1.85-1.98-1.83.64-1.83,1.98.83,1.98,1.8,1.98Z"/>
</svg>