<?xml version="1.0" encoding="utf-8"?>
<!-- Generator: Adobe Illustrator 27.2.0, SVG Export Plug-In . SVG Version: 6.00 Build 0)  -->
<svg version="1.1" id="_레이어_1" xmlns="http://www.w3.org/2000/svg" xmlns:xlink="http://www.w3.org/1999/xlink" x="0px"
	 y="0px" viewBox="0 0 24 24" style="enable-background:new 0 0 24 24;" xml:space="preserve">
<style type="text/css">
	.st0{fill:#444444;}
</style>
<g>
	<path class="st0" d="M21.6,18.6H20l-1-0.2l-0.6-0.3L17.7,18L17,17.6l-0.9-0.4l-0.6-0.4l-0.7-0.7L14,15.6l-0.6-1l-0.8-1.3l-0.2-0.6
		l-0.5-0.9L11.8,11l-0.4-1.5V8.4l0.4-0.7l0.1-0.5l0.3-0.8L13,5.3l0.6-0.4H15l0.8,0.3l0.7,0.4L17.2,6l0.5,0.4l0.7,0.5L19,7.7l1.1,0.7
		L20.6,9l0.8,0.9L22,11l0.2,0.5l0.4,0.7l1.2,2.8l0.2,1l-0.7,1.2l-0.6,0.9L21.6,18.6L21.6,18.6z M20.2,17.3h1.1l0.5-0.2l0.4-0.5
		l0.4-0.8l-0.1-0.5l-0.4-1l-0.8-1.7L21,12l-0.2-0.5l-0.4-0.9l-1.1-1.2l-1.1-0.8l-0.7-0.9L17,7.3L16.5,7l-0.6-0.4l-0.6-0.3l-0.4-0.2
		h-0.8L14,6.2L13.3,7L13,7.6l-0.1,0.6l-0.2,0.5v0.7l0.4,1.2l0.2,0.7l0.5,0.9l0.2,0.5l0.8,1.2l0.4,0.8l0.8,0.5l0.7,0.7l0.4,0.3
		l0.9,0.4l0.5,0.3l0.7,0.1l0.6,0.2L20.2,17.3L20.2,17.3z"/>
	<path class="st0" d="M9.9,19.2H8.7l-1.2-0.3l-1.2-0.4l-0.7-0.3l-0.8-0.8L3.7,17l-0.8-0.8l-0.4-0.8L2,14.9l-0.7-1l-0.6-1.2L0,11.6
		v-1.4L0.1,9l0.4-1l0.7-0.7l0.9-0.5h1.4l0.8,0.1l0.5,0.4l0.8,0.5l1.1,1l0.4,0.4l0.8,0.9L9,10.9l0.7,0.8l0.4,0.8l0.7,1l1.1,2.7
		l-0.4,1.2L11,18.1l-0.3,0.4L9.9,19.2L9.9,19.2z M8.9,17.9h0.4l0.3-0.3l0.3-0.4l0.4-0.4l0.1-0.4l-0.9-2.2l-0.7-1l-0.3-0.7L8.1,12
		L7,11.2L5.8,9.8L4.8,9L4.1,8.5L3.8,8.2H3.4H2.5L2,8.5L1.6,8.9L1.4,9.4v0.8v1L1.9,12l0.6,1.2L3,14.1l0.6,0.8L4,15.5l0.4,0.4l1.2,0.5
		l0.7,0.8l0.4,0.1l1.1,0.4L8.9,17.9L8.9,17.9z"/>
	<polygon class="st0" points="15,11.2 16,10.4 17.8,10.9 18.8,12 20,14.4 20.2,15.4 20.2,16.3 20.2,16.8 19.7,17.2 19.1,17.5 
		18.3,17.5 15.8,15.7 15.3,15 14.9,14.1 14.3,13.3 14.2,12.5 14.2,11.9 14.4,11.6 14.7,11.3 	"/>
	<polygon class="st0" points="9.5,18.1 8.5,19 6.7,18.7 5.6,17.6 4.1,15.4 3.8,14.4 3.7,13.5 3.7,13 4.2,12.6 4.7,12.2 5.6,12.1 
		8.2,13.7 8.8,14.4 9.3,15.2 9.9,15.9 10.1,16.7 10.1,17.3 10,17.7 9.8,18 	"/>
</g>
</svg>
